# xmcd CD database file
#
# Track frame offsets:
#	150
#	13347
#	39042
#	52325
#	67872
#	85212
#	104542
#	135565
#	164057
#	179675
#	210340
#	234912
#	272085
#	291507
#	333542
#
# Disc length: 4790 seconds
#
# Revision: 2
# Processed by: cddbd v1.5.2PL0 Copyright (c) Steve Scherf et al.
# Submitted via: CDex 1.70beta2
#
DISCID=e012b40f
DTITLE=Chet Baker - Career 1952-1988 - Shout Factory - D1
DYEAR=1952
DGENRE=Jazz
TTITLE0=My Funny Valentine (Gerry Mulligan Quartet)
TTITLE1=Half Nelson (Stan Getz and Chet Baker)
TTITLE2=Love Walked in (Chet Baker)
TTITLE3=Pro Defunctus (Chet Baker)
TTITLE4=Alone Together (Chet Baker)
TTITLE5=Love Nest (Russ Freeman and Chet Baker)
TTITLE6=When Lights are Low (Chet Baker)
TTITLE7=Well, You Needn't (Chet Baker Sextet)
TTITLE8=Over the Rainbow (Chet Baker Sextet)
TTITLE9=Romas (Chet Baker Quintet)
TTITLE10=Tangerine (Chet Baker)
TTITLE11=Line for Lyons (Gerry Mulligan and Chet Baker)
TTITLE12=The Best Thing for You (Chet Baker)
TTITLE13=Strollin' (Chet Baker)
TTITLE14=Look for the Silver Lining (Chet Baker)
EXTD=YEAR: 1952
EXTT0=
EXTT1=
EXTT2=
EXTT3=
EXTT4=
EXTT5=
EXTT6=
EXTT7=
EXTT8=
EXTT9=
EXTT10=
EXTT11=
EXTT12=
EXTT13=
EXTT14=
PLAYORDER=
